<svg width="60" height="60" viewBox="0 0 24 24" fill="none"
     stroke="#f46e32" stroke-width="1.8" stroke-linecap="round" stroke-linejoin="round">
  <circle cx="12" cy="12" r="3"/>
  <path d="M19.4 15a1.65 1.65 0 0 0 .33 1.82l.06.06
           a2 2 0 0 1-2.83 2.83l-.06-.06
           a1.65 1.65 0 0 0-1.82-.33
           a1.65 1.65 0 0 0-1 1.51V21
           a2 2 0 0 1-4 0v-.09
           a1.65 1.65 0 0 0-1-1.51
           a1.65 1.65 0 0 0-1.82.33l-.06.06
           a2 2 0 1 1-2.83-2.83l.06-.06
           a1.65 1.65 0 0 0 .33-1.82
           a1.65 1.65 0 0 0-1.51-1H3
           a2 2 0 0 1 0-4h.09
           a1.65 1.65 0 0 0 1.51-1
           a1.65 1.65 0 0 0-.33-1.82l-.06-.06
           a2 2 0 1 1 2.83-2.83l.06.06
           a1.65 1.65 0 0 0 1.82.33H9
           a1.65 1.65 0 0 0 1-1.51V3
           a2 2 0 0 1 4 0v.09
           a1.65 1.65 0 0 0 1 1.51
           a1.65 1.65 0 0 0 1.82-.33l.06-.06
           a2 2 0 1 1 2.83 2.83l-.06.06
           a1.65 1.65 0 0 0-.33 1.82V9
           a1.65 1.65 0 0 0 1.51 1H21
           a2 2 0 0 1 0 4h-.09
           a1.65 1.65 0 0 0-1.51 1z"/>
</svg>
